<?xml version="1.0" encoding="UTF-8" standalone="no"?>
<svg
   width="1280"
   height="640"
   version="1.1"
   viewBox="0 0 338.67 169.33"
   xml:space="preserve"
   id="svg48"
   sodipodi:docname="xk6-prometheus-social.svg"
   inkscape:version="1.2.2 (732a01da63, 2022-12-09, custom)"
   xmlns:inkscape="http://www.inkscape.org/namespaces/inkscape"
   xmlns:sodipodi="http://sodipodi.sourceforge.net/DTD/sodipodi-0.dtd"
   xmlns="http://www.w3.org/2000/svg"
   xmlns:svg="http://www.w3.org/2000/svg"><defs
     id="defs52" /><sodipodi:namedview
     id="namedview50"
     pagecolor="#ffffff"
     bordercolor="#000000"
     borderopacity="0.25"
     inkscape:showpageshadow="2"
     inkscape:pageopacity="0.0"
     inkscape:pagecheckerboard="0"
     inkscape:deskcolor="#d1d1d1"
     inkscape:document-units="pt"
     showgrid="false"
     inkscape:zoom="0.51171875"
     inkscape:cx="559.87786"
     inkscape:cy="296.06107"
     inkscape:window-width="1862"
     inkscape:window-height="1016"
     inkscape:window-x="0"
     inkscape:window-y="0"
     inkscape:window-maximized="1"
     inkscape:current-layer="g44" /><g
     transform="translate(109.78,-38.204)"
     id="g44"><rect
       x="-109.45"
       y="38.535999"
       width="338"
       height="168.67"
       fill="#ffffff"
       stroke="#ffffff"
       stroke-width="0.66337"
       id="rect18" /><text
       x="-45.560032"
       y="180.34294"
       fill="#000000"
       font-family="sans-serif"
       font-size="7.0556px"
       stroke-width="0.52917"
       style="font-size:7.0556px;font-family:sans-serif;font-variant-ligatures:normal;font-variant-caps:normal;font-variant-numeric:normal;font-variant-east-asian:normal;fill:#000000;stroke-width:0.52917"
       xml:space="preserve"
       id="text32"><tspan
         x="-45.560032"
         y="180.34294"
         fill="#000000"
         font-family="'Roboto Mono Light for Powerline'"
         font-size="9.8778px"
         stroke-width="0.52917"
         style="font-style:normal;font-variant:normal;font-weight:normal;font-stretch:normal;font-size:11.289px;font-family:'Roboto Mono Light for Powerline';-inkscape-font-specification:'Roboto Mono Light for Powerline, Normal';font-variant-ligatures:normal;font-variant-caps:normal;font-variant-numeric:normal;font-variant-east-asian:normal"
         id="tspan30">Prometheus HTTP exporter for k6</tspan></text><text
       x="-65.260864"
       y="158.08879"
       fill="#000000"
       font-family="'Roboto Mono Light for Powerline'"
       font-size="9.8778px"
       stroke-width="0.52917"
       style="font-variant-ligatures:normal;font-variant-caps:normal;font-variant-numeric:normal;font-variant-east-asian:normal"
       xml:space="preserve"
       id="text42"><tspan
         x="-65.260864"
         y="158.08879"
         font-family="'Roboto Mono Light for Powerline'"
         font-size="19.756px"
         stroke-width="0.52917"
         style="font-variant-ligatures:normal;font-variant-caps:normal;font-variant-numeric:normal;font-variant-east-asian:normal"
         id="tspan40">szkiba/<tspan
   font-family="'Roboto Mono for Powerline'"
   font-size="19.756px"
   font-weight="bold"
   style="font-variant-ligatures:normal;font-variant-caps:normal;font-variant-numeric:normal;font-variant-east-asian:normal"
   id="tspan38">xk6-prometheus</tspan></tspan></text><path
       d="m 53.919778,132.93482 c -2.529038,-0.52901 -4.838072,-1.16202 -6.240092,-1.71003 -7.857116,-3.07604 -12.019177,-7.71511 -12.541185,-13.9812 -0.357005,-4.27907 1.549023,-9.70215 4.865072,-13.84721 1.178017,-1.47302 1.772026,-2.87204 2.125031,-5.010068 0.410005,-2.48504 0.339004,-5.33908 -0.216003,-8.67713 -0.078,-0.46701 -0.124002,-0.89501 -0.102001,-0.95101 0.073,-0.19101 0.336005,-0.10101 1.036014,0.356 3.040045,1.98403 5.022074,4.70207 5.887087,8.07712 0.66901,2.61104 0.66701,5.523078 -0.007,8.534128 -0.097,0.431 -0.164002,0.79601 -0.150002,0.81001 0.066,0.066 1.153017,-1.70003 1.576023,-2.56104 1.053016,-2.14503 1.518023,-4.217058 1.431021,-6.363088 -0.051,-1.24502 -0.190002,-2.01503 -0.614009,-3.38505 -1.649024,-5.33408 -2.04303,-9.904149 -1.227018,-14.198213 1.042016,-5.480081 4.152061,-10.131149 8.910132,-13.325196 0.922013,-0.62101 2.379035,-1.418021 2.588038,-1.418021 0.059,0 0.138002,0.059 0.177003,0.131002 0.056,0.104001 -0.009,0.291004 -0.316005,0.916013 a 23.05034,23.05034 0 0 0 -2.112031,6.697099 c -0.208004,1.34502 -0.227004,4.471066 -0.035,5.774085 0.73901,5.015074 2.869042,9.639141 6.572097,14.271211 1.132016,1.41602 2.927043,3.36005 3.708054,4.01706 l 0.311005,0.261 v -1.46102 c 0,-1.68102 0.094,-2.34203 0.519008,-3.64505 0.938014,-2.87605 3.016043,-5.408082 6.150091,-7.496113 1.014014,-0.67601 2.703039,-1.580023 2.884042,-1.544023 0.253004,0.05 0.270004,0.242004 0.047,0.554008 -0.721011,1.007015 -1.216018,2.576038 -1.413021,4.474067 -0.100002,0.970011 -0.048,3.095041 0.106001,4.294061 0.444007,3.45505 1.701026,7.567108 3.690055,12.066178 2.188032,4.95007 2.906043,9.08113 2.253033,12.96519 -1.004015,5.96809 -5.569083,10.76316 -13.026193,13.6842 -1.968028,0.77101 -2.213032,0.82202 -2.213032,0.46201 0,-0.116 0.116002,-0.239 0.432007,-0.46001 1.036015,-0.72401 2.10003,-1.94903 2.544037,-2.92804 0.383006,-0.84601 0.510008,-1.48802 0.511008,-2.59804 0.003,-2.15203 -0.69001,-3.94406 -2.407036,-6.22309 -0.70201,-0.93201 -1.044015,-2.04803 -1.125016,-3.66505 -0.039,-0.77502 0.037,-2.08304 0.160002,-2.76005 l 0.043,-0.236 -0.235004,0.163 c -0.471007,0.32601 -1.34302,1.28602 -1.666024,1.83403 a 7.3101079,7.3101079 0 0 0 -0.811012,2.24503 c -0.179003,1.11202 -0.05,2.81405 0.305004,4.00306 0.172003,0.57601 0.165002,0.67001 -0.054,0.74001 -0.363005,0.11501 -1.506022,-1.62902 -1.941029,-2.96104 -0.390005,-1.19502 -0.418006,-2.67104 -0.074,-3.82206 0.67501,-2.25203 0.827013,-3.17904 0.823013,-5.01307 -0.003,-1.19602 -0.027,-1.52802 -0.156003,-2.12203 -0.419004,-1.92903 -1.266017,-3.51805 -2.588037,-4.85207 -0.571008,-0.57601 -1.466021,-1.29802 -1.868027,-1.50503 -0.201003,-0.104 -0.209003,-0.103 -0.157002,0.019 0.221003,0.51401 0.618009,1.79603 0.741011,2.38804 0.217003,1.05002 0.215003,2.95904 -0.004,4.06006 -0.447007,2.24303 -1.599024,4.58307 -3.304049,6.7141 -0.64201,0.80301 -2.200033,2.35103 -2.366035,2.35103 -0.253004,0 -0.298005,-0.15 -0.212003,-0.70101 0.149002,-0.95301 -0.017,-2.01803 -0.460007,-2.95804 -0.332005,-0.70301 -0.744011,-1.26002 -1.387021,-1.87403 -0.496007,-0.473 -1.542022,-1.24402 -1.688024,-1.24402 -0.033,0 -0.015,0.10701 0.039,0.23701 0.167002,0.401 0.309004,1.40402 0.309004,2.19003 0,1.78403 -0.576008,4.19706 -1.560023,6.5371 -1.34002,3.18404 -1.607024,4.24706 -1.532023,6.10309 0.041,1.02901 0.174003,1.65702 0.531008,2.51503 0.698011,1.67603 2.388036,3.29105 4.544067,4.34107 0.730011,0.355 0.862013,0.478 0.735011,0.68101 -0.093,0.148 -0.176002,0.151 -0.747011,0.032 z"
       fill="#7d64ff"
       id="path1882"
       style="stroke-width:1.00001" /><rect
       x="-88.347"
       y="59.639"
       width="295.79999"
       height="126.46"
       fill="none"
       id="rect20" /></g><style
     type="text/css"
     id="style46">.st0{fill-rule:evenodd;clip-rule:evenodd;}</style></svg>
