<svg xmlns="http://www.w3.org/2000/svg" width="256" height="256" viewBox="0 0 67.733 67.733" xmlns:v="https://vecta.io/nano"><path d="M28.231 67.649c-2.529-.529-4.838-1.162-6.24-1.71-7.857-3.076-12.019-7.715-12.541-13.981-.357-4.279 1.549-9.702 4.865-13.847 1.178-1.473 1.772-2.872 2.125-5.01.41-2.485.339-5.339-.216-8.677-.078-.467-.124-.895-.102-.951.073-.191.336-.101 1.036.356 3.04 1.984 5.022 4.702 5.887 8.077.669 2.611.667 5.523-.007 8.534-.097.431-.164.796-.15.81.066.066 1.153-1.7 1.576-2.561 1.053-2.145 1.518-4.217 1.431-6.363-.051-1.245-.19-2.015-.614-3.385-1.649-5.334-2.043-9.904-1.227-14.198 1.042-5.48 4.152-10.131 8.91-13.325C33.886.797 35.343 0 35.552 0c.059 0 .138.059.177.131.056.104-.009.291-.316.916a23.05 23.05 0 0 0-2.112 6.697c-.208 1.345-.227 4.471-.035 5.774.739 5.015 2.869 9.639 6.572 14.271 1.132 1.416 2.927 3.36 3.708 4.017l.311.261v-1.461c0-1.681.094-2.342.519-3.645.938-2.876 3.016-5.408 6.15-7.496 1.014-.676 2.703-1.58 2.884-1.544.253.05.27.242.047.554-.721 1.007-1.216 2.576-1.413 4.474-.1.97-.048 3.095.106 4.294.444 3.455 1.701 7.567 3.69 12.066 2.188 4.95 2.906 9.081 2.253 12.965-1.004 5.968-5.569 10.763-13.026 13.684-1.968.771-2.213.822-2.213.462 0-.116.116-.239.432-.46 1.036-.724 2.1-1.949 2.544-2.928.383-.846.51-1.488.511-2.598.003-2.152-.69-3.944-2.407-6.223-.702-.932-1.044-2.048-1.125-3.665-.039-.775.037-2.083.16-2.76l.043-.236-.235.163c-.471.326-1.343 1.286-1.666 1.834a7.31 7.31 0 0 0-.811 2.245c-.179 1.112-.05 2.814.305 4.003.172.576.165.67-.054.74-.363.115-1.506-1.629-1.941-2.961-.39-1.195-.418-2.671-.074-3.822.675-2.252.827-3.179.823-5.013-.003-1.196-.027-1.528-.156-2.122-.419-1.929-1.266-3.518-2.588-4.852-.571-.576-1.466-1.298-1.868-1.505-.201-.104-.209-.103-.157.019.221.514.618 1.796.741 2.388.217 1.05.215 2.959-.004 4.06-.447 2.243-1.599 4.583-3.304 6.714-.642.803-2.2 2.351-2.366 2.351-.253 0-.298-.15-.212-.701.149-.953-.017-2.018-.46-2.958-.332-.703-.744-1.26-1.387-1.874-.496-.473-1.542-1.244-1.688-1.244-.033 0-.015.107.039.237.167.401.309 1.404.309 2.19 0 1.784-.576 4.197-1.56 6.537-1.34 3.184-1.607 4.247-1.532 6.103.041 1.029.174 1.657.531 2.515.698 1.676 2.388 3.291 4.544 4.341.73.355.862.478.735.681-.093.148-.176.151-.747.032z" fill="#7d64ff"/></svg>